<?xml version="1.0" encoding="UTF-8"?>
<svg height="128px" viewBox="0 0 128 128" width="128px" xmlns="http://www.w3.org/2000/svg" xmlns:xlink="http://www.w3.org/1999/xlink">
    <filter id="a" height="100%" width="100%" x="0%" y="0%">
        <feColorMatrix in="SourceGraphic" type="matrix" values="0 0 0 0 1 0 0 0 0 1 0 0 0 0 1 0 0 0 1 0"/>
    </filter>
    <mask id="b">
        <g filter="url(#a)">
            <rect fill-opacity="0.3" height="128" width="128"/>
        </g>
    </mask>
    <clipPath id="c">
        <rect height="152" width="192"/>
    </clipPath>
    <clipPath id="d">
        <path d="m 88 80 h 28 v 29 h -28 z m 0 0"/>
    </clipPath>
    <clipPath id="e">
        <path d="m 116 80.496094 l -28 28 h -8 v -36 h 36 z m 0 0"/>
    </clipPath>
    <linearGradient id="f" gradientTransform="matrix(0 0.25 0.25 0 83.000029 8.495224)" gradientUnits="userSpaceOnUse" x1="344" x2="340" y1="76" y2="72">
        <stop offset="0" stop-color="#eeeeec"/>
        <stop offset="1" stop-color="#ffffff"/>
    </linearGradient>
    <clipPath id="g">
        <path d="m 82 74 h 34 v 35 h -34 z m 0 0"/>
    </clipPath>
    <clipPath id="h">
        <path d="m 116 80.496094 l -28 28 h -8 v -36 h 36 z m 0 0"/>
    </clipPath>
    <symbol id="i" overflow="visible">
        <path d="m 2.796875 2.71875 c -0.324219 -0.292969 -0.574219 -0.609375 -0.75 -0.953125 c -0.179687 -0.335937 -0.277344 -0.671875 -0.296875 -1.015625 c -0.011719 -0.335938 0.046875 -0.671875 0.171875 -1.015625 c 0.132813 -0.34375 0.347656 -0.671875 0.640625 -0.984375 l 2.703125 -2.96875 c 0.289063 -0.3125 0.601563 -0.550781 0.9375 -0.71875 c 0.332031 -0.175781 0.671875 -0.265625 1.015625 -0.265625 c 0.34375 -0.007813 0.6875 0.058594 1.03125 0.203125 c 0.351562 0.136719 0.691406 0.351562 1.015625 0.640625 c 0.320313 0.304687 0.566406 0.621094 0.734375 0.953125 c 0.175781 0.335938 0.269531 0.671875 0.28125 1.015625 c 0.019531 0.335937 -0.039062 0.679687 -0.171875 1.03125 c -0.125 0.355469 -0.335937 0.6875 -0.625 1 l -2.703125 2.96875 c -0.292969 0.3125 -0.605469 0.546875 -0.9375 0.703125 c -0.335938 0.15625 -0.671875 0.238281 -1.015625 0.25 c -0.34375 0.007812 -0.6875 -0.054688 -1.03125 -0.1875 c -0.34375 -0.136719 -0.679687 -0.355469 -1 -0.65625 z m 0.609375 -3.203125 c -0.355469 0.3867188 -0.53125 0.800781 -0.53125 1.25 c 0.007812 0.457031 0.207031 0.863281 0.59375 1.21875 c 0.375 0.351563 0.789062 0.507813 1.25 0.46875 c 0.457031 -0.03125 0.863281 -0.242187 1.21875 -0.625 l 2.703125 -2.96875 c 0.363281 -0.382813 0.539063 -0.804687 0.53125 -1.265625 c -0.011719 -0.457031 -0.203125 -0.863281 -0.578125 -1.21875 c -0.386719 -0.351562 -0.808594 -0.507812 -1.265625 -0.46875 c -0.449219 0.042969 -0.855469 0.257812 -1.21875 0.640625 z m 1.96875 0.375 c -0.148438 -0.132813 -0.226562 -0.285156 -0.234375 -0.453125 c 0 -0.164062 0.070313 -0.332031 0.21875 -0.5 l 0.359375 -0.375 c 0.144531 -0.164062 0.304688 -0.253906 0.484375 -0.265625 c 0.175781 -0.019531 0.335937 0.039063 0.484375 0.171875 c 0.144531 0.136719 0.21875 0.292969 0.21875 0.46875 c 0 0.179688 -0.074219 0.351562 -0.21875 0.515625 l -0.359375 0.375 c -0.148437 0.16796875 -0.308594 0.25 -0.484375 0.25 c -0.167969 0.0078125 -0.324219 -0.0546875 -0.46875 -0.1875 z m 0 0"/>
    </symbol>
    <symbol id="j" overflow="visible">
        <path d="m 0.859375 0.796875 l 0.703125 -0.765625 l 1.890625 1.71875 l 4.28125 -4.6875 c 0.070313 -0.0625 0.148437 -0.128906 0.234375 -0.203125 c 0.082031 -0.082031 0.160156 -0.148437 0.234375 -0.203125 c 0.070313 -0.050781 0.132813 -0.097656 0.1875 -0.140625 c 0.050781 -0.050781 0.078125 -0.078125 0.078125 -0.078125 l -0.078125 -0.078125 c -0.074219 0.011719 -0.148437 0.023437 -0.21875 0.03125 c -0.074219 -0.007813 -0.152344 -0.015625 -0.234375 -0.015625 c -0.074219 0 -0.140625 -0.003906 -0.203125 -0.015625 l -2.390625 -0.40625 l 0.84375 -0.921875 l 2.640625 0.375 l 1.109375 1.015625 l -5.609375 6.125 l 1.53125 1.421875 l -0.703125 0.765625 z m 0 0"/>
    </symbol>
    <symbol id="k" overflow="visible">
        <path d="m 3.3125 -1.984375 l 6.53125 -1.671875 l 0.9375 0.859375 l -6.703125 1.703125 l -0.34375 0.375 l 2.25 2.0625 l 1.53125 -1.671875 l 0.859375 0.78125 l -3.59375 3.921875 l -0.859375 -0.78125 l 1.359375 -1.484375 l -3.109375 -2.84375 z m 0 0"/>
    </symbol>
    <symbol id="l" overflow="visible">
        <path d="m 2.796875 2.71875 c -0.34375 -0.3125 -0.609375 -0.640625 -0.796875 -0.984375 s -0.296875 -0.6875 -0.328125 -1.03125 s 0.007813 -0.6835938 0.125 -1.015625 c 0.125 -0.34375 0.328125 -0.664062 0.609375 -0.96875 c 0.195312 -0.21875 0.414062 -0.390625 0.65625 -0.515625 c 0.238281 -0.125 0.488281 -0.207031 0.75 -0.25 c 0.257812 -0.039063 0.515625 -0.03125 0.765625 0.03125 c 0.257813 0.054687 0.503906 0.15625 0.734375 0.3125 l 0.0625 -0.046875 c -0.15625 -0.195312 -0.265625 -0.410156 -0.328125 -0.640625 c -0.0625 -0.226563 -0.09375 -0.460937 -0.09375 -0.703125 c 0.007813 -0.238281 0.0625 -0.46875 0.15625 -0.6875 c 0.101563 -0.21875 0.242187 -0.425781 0.421875 -0.625 c 0.25 -0.269531 0.523438 -0.472656 0.828125 -0.609375 c 0.300781 -0.132813 0.617187 -0.195313 0.953125 -0.1875 c 0.332031 0 0.660156 0.074219 0.984375 0.21875 c 0.332031 0.136719 0.65625 0.34375 0.96875 0.625 c 0.300781 0.28125 0.535156 0.585937 0.703125 0.90625 c 0.175781 0.3125 0.28125 0.636719 0.3125 0.96875 c 0.03125 0.335937 -0.007812 0.65625 -0.109375 0.96875 c -0.105469 0.304687 -0.28125 0.589844 -0.53125 0.859375 c -0.179687 0.199219 -0.375 0.355469 -0.59375 0.46875 c -0.210937 0.1171875 -0.433594 0.19140625 -0.671875 0.234375 c -0.242188 0.0390625 -0.476562 0.0351562 -0.703125 -0.015625 c -0.230469 -0.0507812 -0.449219 -0.144531 -0.65625 -0.28125 l -0.0625 0.046875 c 0.351563 0.457031 0.519531 0.953125 0.5 1.484375 c -0.023437 0.53125 -0.234375 1.015625 -0.640625 1.453125 c -0.273438 0.289063 -0.570312 0.515625 -0.890625 0.671875 c -0.324219 0.15625 -0.667969 0.234375 -1.03125 0.234375 c -0.355469 0 -0.710937 -0.078125 -1.0625 -0.234375 c -0.355469 -0.148438 -0.699219 -0.375 -1.03125 -0.6875 z m 0.5625 -3.25 c -0.355469 0.386719 -0.53125 0.8125 -0.53125 1.28125 c 0.007813 0.476562 0.210937 0.894531 0.609375 1.25 c 0.382812 0.363281 0.816406 0.53125 1.296875 0.5 c 0.476563 -0.03125 0.894531 -0.242188 1.25 -0.625 c 0.363281 -0.40625 0.53125 -0.839844 0.5 -1.296875 c -0.023437 -0.449219 -0.226563 -0.851563 -0.609375 -1.21875 c -0.398438 -0.351563 -0.824219 -0.523437 -1.28125 -0.515625 c -0.460938 0.011719 -0.871094 0.21875 -1.234375 0.625 z m 5.25 -3.109375 c -0.367187 -0.332031 -0.75 -0.488281 -1.15625 -0.46875 c -0.398437 0.023437 -0.75 0.210937 -1.0625 0.5625 c -0.324219 0.355469 -0.484375 0.742187 -0.484375 1.15625 c 0.007812 0.417969 0.191406 0.789063 0.546875 1.109375 c 0.351563 0.324219 0.738281 0.46875 1.15625 0.4375 c 0.414063 -0.03125 0.785156 -0.222656 1.109375 -0.578125 c 0.3125 -0.351563 0.457031 -0.726563 0.4375 -1.125 c -0.011719 -0.394531 -0.195312 -0.757813 -0.546875 -1.09375 z m 0 0"/>
    </symbol>
    <symbol id="m" overflow="visible">
        <path d="m 2.734375 2.671875 c -0.304687 -0.28125 -0.542969 -0.585937 -0.71875 -0.90625 c -0.167969 -0.3125 -0.277344 -0.636719 -0.328125 -0.96875 c -0.042969 -0.335937 -0.015625 -0.667969 0.078125 -1 c 0.101563 -0.332031 0.269531 -0.660156 0.5 -0.984375 l 0.875 0.78125 c -0.261719 0.3984375 -0.367187 0.796875 -0.3125 1.203125 c 0.050781 0.414063 0.25 0.785156 0.59375 1.109375 c 0.394531 0.363281 0.828125 0.53125 1.296875 0.5 c 0.46875 -0.023438 0.890625 -0.230469 1.265625 -0.625 c 0.363281 -0.40625 0.535156 -0.851562 0.515625 -1.328125 c -0.011719 -0.46875 -0.226562 -0.890625 -0.640625 -1.265625 l -0.8125 -0.75 l 0.8125 -0.890625 l 2.65625 -0.125 c 0.113281 -0.007813 0.226563 -0.007813 0.34375 0 c 0.125 0 0.25 0.011719 0.375 0.03125 c 0.101563 0.011719 0.222656 0.023437 0.359375 0.03125 l 0.015625 -0.03125 c -0.085937 -0.050781 -0.164063 -0.101563 -0.234375 -0.15625 c -0.09375 -0.0625 -0.179688 -0.128906 -0.25 -0.203125 c -0.074219 -0.070312 -0.15625 -0.148438 -0.25 -0.234375 l -2.40625 -2.1875 l 0.703125 -0.765625 l 3.828125 3.5 l -0.875 0.953125 l -3.046875 0.0625 c -0.074219 0 -0.140625 0 -0.203125 0 s -0.125 0 -0.1875 0 s -0.121094 -0.003906 -0.171875 -0.015625 c 0.34375 0.324219 0.609375 0.664062 0.796875 1.015625 c 0.195312 0.34375 0.304688 0.695313 0.328125 1.0625 c 0.03125 0.363281 -0.023437 0.722656 -0.15625 1.078125 c -0.125 0.363281 -0.335937 0.707031 -0.625 1.03125 c -0.304687 0.320312 -0.625 0.5625 -0.96875 0.71875 c -0.335937 0.164062 -0.683594 0.25 -1.046875 0.25 c -0.355469 0.007812 -0.714844 -0.058594 -1.078125 -0.203125 c -0.355469 -0.148437 -0.699219 -0.375 -1.03125 -0.6875 z m 0 0"/>
    </symbol>
    <symbol id="n" overflow="visible">
        <path d="m 3.6875 1.15625 c -0.761719 -0.210938 -1.339844 -0.5625 -1.734375 -1.0625 c -0.398437 -0.5 -0.558594 -1.066406 -0.484375 -1.703125 l 1.1875 0.328125 c 0 0.3125 0.109375 0.605469 0.328125 0.875 c 0.226563 0.261719 0.5625 0.453125 1 0.578125 c 0.507813 0.132813 0.953125 0.097656 1.328125 -0.109375 c 0.382812 -0.207031 0.648438 -0.5625 0.796875 -1.0625 l 0.171875 -0.625 c 0.132812 -0.5 0.09375 -0.929688 -0.125 -1.296875 c -0.21875 -0.375 -0.589844 -0.632813 -1.109375 -0.78125 c -0.648437 -0.175781 -1.183594 -0.082031 -1.609375 0.28125 l -1.15625 -0.328125 l 1.453125 -4.90625 l 4.9375 1.375 l -0.296875 1.015625 l -3.859375 -1.078125 l -0.921875 3.171875 l 0.078125 0.03125 c 0.125 -0.15625 0.28125 -0.28125 0.46875 -0.375 c 0.175781 -0.082031 0.390625 -0.140625 0.640625 -0.171875 c 0.257812 -0.039062 0.582031 -0.007812 0.96875 0.09375 c 0.75 0.210938 1.269531 0.609375 1.5625 1.203125 c 0.300781 0.59375 0.34375 1.292969 0.125 2.09375 l -0.171875 0.625 c -0.117187 0.40625 -0.289063 0.75 -0.515625 1.03125 c -0.230469 0.289063 -0.496094 0.515625 -0.796875 0.671875 c -0.304687 0.15625 -0.648437 0.242188 -1.03125 0.265625 c -0.386719 0.03125 -0.796875 -0.015625 -1.234375 -0.140625 z m 0 0"/>
    </symbol>
    <symbol id="o" overflow="visible">
        <path d="m 3.71875 1.171875 c -0.449219 -0.125 -0.835938 -0.304687 -1.15625 -0.53125 c -0.3125 -0.21875 -0.5625 -0.476563 -0.75 -0.765625 s -0.304688 -0.613281 -0.34375 -0.96875 c -0.042969 -0.351562 -0.011719 -0.726562 0.09375 -1.125 c 0.082031 -0.289062 0.203125 -0.546875 0.359375 -0.765625 c 0.15625 -0.226563 0.335937 -0.414063 0.546875 -0.5625 c 0.207031 -0.15625 0.4375 -0.265625 0.6875 -0.328125 c 0.257812 -0.0625 0.53125 -0.078125 0.8125 -0.046875 l 0.03125 -0.0625 c -0.230469 -0.113281 -0.429688 -0.253906 -0.59375 -0.421875 c -0.15625 -0.175781 -0.28125 -0.375 -0.375 -0.59375 s -0.152344 -0.445312 -0.171875 -0.6875 c -0.023437 -0.238281 0.003906 -0.488281 0.078125 -0.75 c 0.101562 -0.351562 0.253906 -0.65625 0.453125 -0.90625 c 0.207031 -0.257812 0.460937 -0.460938 0.765625 -0.609375 c 0.3125 -0.144531 0.644531 -0.226563 1 -0.25 c 0.351562 -0.03125 0.734375 0.011719 1.140625 0.125 c 0.394531 0.117187 0.738281 0.277344 1.03125 0.484375 c 0.300781 0.199219 0.539063 0.4375 0.71875 0.71875 c 0.175781 0.28125 0.285156 0.589844 0.328125 0.921875 c 0.050781 0.324219 0.023438 0.664063 -0.078125 1.015625 c -0.074219 0.261719 -0.179687 0.492188 -0.3125 0.6875 c -0.125 0.199219 -0.289063 0.371094 -0.484375 0.515625 c -0.199219 0.136719 -0.414062 0.234375 -0.640625 0.296875 c -0.230469 0.054688 -0.46875 0.070312 -0.71875 0.046875 l -0.03125 0.0625 c 0.519531 0.242187 0.890625 0.605469 1.109375 1.09375 c 0.226562 0.480469 0.265625 1.007813 0.109375 1.578125 c -0.117187 0.386719 -0.289063 0.71875 -0.515625 1 c -0.21875 0.289062 -0.484375 0.519531 -0.796875 0.6875 c -0.304687 0.164062 -0.652344 0.257812 -1.046875 0.28125 c -0.398438 0.03125 -0.8125 -0.015625 -1.25 -0.140625 z m -0.96875 -3.171875 c -0.148438 0.5 -0.105469 0.964844 0.125 1.390625 c 0.226562 0.417969 0.597656 0.6953125 1.109375 0.84375 c 0.507813 0.144531 0.96875 0.09375 1.375 -0.15625 c 0.40625 -0.238281 0.679687 -0.609375 0.828125 -1.109375 c 0.144531 -0.519531 0.097656 -0.976562 -0.140625 -1.375 c -0.230469 -0.40625 -0.601563 -0.679688 -1.109375 -0.828125 c -0.511719 -0.144531 -0.96875 -0.101563 -1.375 0.125 c -0.398438 0.21875 -0.667969 0.589844 -0.8125 1.109375 z m 3.28125 -5.140625 c -0.46875 -0.132813 -0.882812 -0.097656 -1.234375 0.109375 c -0.34375 0.199219 -0.578125 0.523438 -0.703125 0.96875 c -0.125 0.46875 -0.09375 0.890625 0.09375 1.265625 c 0.195312 0.367187 0.523438 0.609375 0.984375 0.734375 c 0.457031 0.125 0.863281 0.085938 1.21875 -0.125 c 0.363281 -0.21875 0.609375 -0.5625 0.734375 -1.03125 c 0.125 -0.445312 0.085938 -0.84375 -0.109375 -1.1875 c -0.1875 -0.351562 -0.515625 -0.597656 -0.984375 -0.734375 z m 0 0"/>
    </symbol>
    <symbol id="p" overflow="visible">
        <path d="m 2.640625 -6.0625 c 0.113281 -0.414062 0.285156 -0.78125 0.515625 -1.09375 c 0.238281 -0.3125 0.519531 -0.550781 0.84375 -0.71875 c 0.332031 -0.175781 0.691406 -0.28125 1.078125 -0.3125 c 0.382813 -0.039062 0.785156 -0.003906 1.203125 0.109375 c 0.425781 0.117187 0.796875 0.292969 1.109375 0.53125 c 0.320313 0.230469 0.570313 0.507813 0.75 0.828125 c 0.1875 0.3125 0.300781 0.664062 0.34375 1.046875 c 0.050781 0.386719 0.019531 0.789063 -0.09375 1.203125 c -0.148437 0.511719 -0.414063 1.015625 -0.796875 1.515625 c -0.386719 0.5 -0.882812 1.039063 -1.484375 1.609375 l -2.5 2.34375 l -1.359375 -0.375 l 2.734375 -2.46875 c 0.25 -0.226562 0.453125 -0.40625 0.609375 -0.53125 s 0.273438 -0.226562 0.359375 -0.3125 c 0.113281 -0.082031 0.195313 -0.140625 0.25 -0.171875 l -0.203125 -0.046875 c -0.105469 0.117188 -0.230469 0.210938 -0.375 0.28125 c -0.148438 0.054688 -0.320312 0.089844 -0.515625 0.109375 c -0.199219 0.023437 -0.445313 -0.007813 -0.734375 -0.09375 c -0.375 -0.09375 -0.699219 -0.25 -0.96875 -0.46875 c -0.273438 -0.21875 -0.484375 -0.476563 -0.640625 -0.78125 c -0.148437 -0.3125 -0.234375 -0.648437 -0.265625 -1.015625 c -0.023438 -0.375 0.023438 -0.769531 0.140625 -1.1875 z m 1.125 0.3125 c -0.085937 0.273438 -0.117187 0.53125 -0.09375 0.78125 c 0.019531 0.242188 0.085937 0.464844 0.203125 0.671875 c 0.113281 0.210937 0.265625 0.386719 0.453125 0.53125 c 0.1875 0.136719 0.40625 0.242187 0.65625 0.3125 c 0.519531 0.148437 0.988281 0.101563 1.40625 -0.140625 c 0.425781 -0.25 0.71875 -0.644531 0.875 -1.1875 c 0.144531 -0.550781 0.097656 -1.035156 -0.140625 -1.453125 c -0.230469 -0.414063 -0.605469 -0.695313 -1.125 -0.84375 c -0.25 -0.070313 -0.496094 -0.09375 -0.734375 -0.0625 c -0.242187 0.03125 -0.460937 0.105469 -0.65625 0.21875 c -0.199219 0.105469 -0.371094 0.257813 -0.515625 0.453125 c -0.148438 0.199219 -0.257812 0.4375 -0.328125 0.71875 z m 0 0"/>
    </symbol>
    <symbol id="q" overflow="visible">
        <path d="m 3.734375 1.171875 c -0.429687 -0.117187 -0.804687 -0.289063 -1.125 -0.515625 c -0.3125 -0.230469 -0.5625 -0.507812 -0.75 -0.828125 s -0.304687 -0.671875 -0.34375 -1.046875 c -0.042969 -0.382812 -0.007813 -0.785156 0.109375 -1.203125 c 0.132812 -0.507813 0.394531 -1.015625 0.78125 -1.515625 c 0.394531 -0.5 0.894531 -1.035156 1.5 -1.609375 l 2.5 -2.375 l 1.359375 0.390625 l -2.75 2.484375 c -0.242187 0.210937 -0.445313 0.382813 -0.609375 0.515625 c -0.15625 0.125 -0.277344 0.230469 -0.359375 0.3125 c -0.105469 0.074219 -0.183594 0.132812 -0.234375 0.171875 l 0.1875 0.0625 c 0.09375 -0.132813 0.222656 -0.234375 0.390625 -0.296875 c 0.125 -0.050781 0.289063 -0.085938 0.5 -0.109375 c 0.207031 -0.019531 0.453125 0.007813 0.734375 0.078125 c 0.375 0.105469 0.691406 0.273438 0.953125 0.5 c 0.269531 0.21875 0.484375 0.480469 0.640625 0.78125 c 0.15625 0.304688 0.25 0.640625 0.28125 1.015625 c 0.03125 0.367187 -0.011719 0.761719 -0.125 1.1875 c -0.117188 0.40625 -0.292969 0.765625 -0.53125 1.078125 c -0.242188 0.3125 -0.523438 0.550781 -0.84375 0.71875 c -0.324219 0.175781 -0.683594 0.28125 -1.078125 0.3125 c -0.386719 0.039062 -0.78125 0.003906 -1.1875 -0.109375 z m 1.28125 -4.625 c -0.523437 -0.144531 -0.996094 -0.09375 -1.421875 0.15625 c -0.417969 0.25 -0.699219 0.648437 -0.84375 1.1875 c -0.15625 0.542969 -0.117188 1.023437 0.125 1.4375 c 0.238281 0.417969 0.617188 0.6953125 1.140625 0.84375 c 0.25 0.070313 0.488281 0.09375 0.71875 0.0625 c 0.226563 -0.03125 0.441406 -0.105469 0.640625 -0.21875 c 0.207031 -0.1132812 0.382812 -0.265625 0.53125 -0.453125 c 0.15625 -0.195312 0.269531 -0.429688 0.34375 -0.703125 c 0.070312 -0.28125 0.09375 -0.546875 0.0625 -0.796875 c -0.023438 -0.25 -0.089844 -0.472656 -0.203125 -0.671875 c -0.117187 -0.195313 -0.265625 -0.367187 -0.453125 -0.515625 c -0.179688 -0.144531 -0.390625 -0.253906 -0.640625 -0.328125 z m 0 0"/>
    </symbol>
    <symbol id="r" overflow="visible">
        <path d="m 1.125 0.3125 l 0.28125 -1 l 2.46875 0.6875 l 1.703125 -6.125 c 0.019531 -0.082031 0.050781 -0.175781 0.09375 -0.28125 c 0.050781 -0.101562 0.09375 -0.195312 0.125 -0.28125 c 0.039063 -0.082031 0.070313 -0.15625 0.09375 -0.21875 c 0.03125 -0.0625 0.046875 -0.09375 0.046875 -0.09375 l -0.109375 -0.03125 c -0.0625 0.03125 -0.121094 0.070312 -0.171875 0.109375 c -0.0625 0.023437 -0.132812 0.054687 -0.203125 0.09375 c -0.074219 0.03125 -0.148437 0.0625 -0.21875 0.09375 l -2.3125 0.71875 l 0.34375 -1.21875 l 2.53125 -0.84375 l 1.4375 0.390625 l -2.234375 8 l 2.03125 0.5625 l -0.28125 1 z m 0 0"/>
    </symbol>
    <symbol id="s" overflow="visible">
        <path d="m 3.625 -5.921875 l 0.984375 -2.25 l 5.359375 2.328125 l -0.53125 1.203125 l -6.203125 6.046875 l -1.203125 -0.515625 l 5.875 -5.578125 c 0.101562 -0.113281 0.195312 -0.203125 0.28125 -0.265625 c 0.082031 -0.070313 0.148438 -0.128906 0.203125 -0.171875 c 0.070313 -0.050781 0.128906 -0.085938 0.171875 -0.109375 l 0.03125 -0.078125 c -0.125 -0.039062 -0.246094 -0.085938 -0.359375 -0.140625 c -0.117187 -0.039063 -0.230469 -0.082031 -0.34375 -0.125 c -0.105469 -0.050781 -0.195313 -0.097656 -0.265625 -0.140625 l -2.359375 -1.015625 l -0.5625 1.28125 z m 0 0"/>
    </symbol>
    <symbol id="t" overflow="visible">
        <path d="m 3.515625 1.65625 c -0.417969 -0.179688 -0.773437 -0.402344 -1.0625 -0.671875 c -0.28125 -0.273437 -0.496094 -0.5625 -0.640625 -0.875 c -0.148438 -0.300781 -0.21875 -0.632813 -0.21875 -1 c 0.007812 -0.363281 0.09375 -0.726563 0.25 -1.09375 c 0.125 -0.28125 0.28125 -0.519531 0.46875 -0.71875 c 0.1875 -0.195313 0.394531 -0.351563 0.625 -0.46875 c 0.226562 -0.125 0.472656 -0.203125 0.734375 -0.234375 c 0.257813 -0.03125 0.53125 -0.003906 0.8125 0.078125 l 0.03125 -0.078125 c -0.21875 -0.144531 -0.398437 -0.3125 -0.53125 -0.5 c -0.136719 -0.195312 -0.234375 -0.410156 -0.296875 -0.640625 c -0.0625 -0.226563 -0.089844 -0.460937 -0.078125 -0.703125 c 0.019531 -0.238281 0.082031 -0.476562 0.1875 -0.71875 c 0.144531 -0.34375 0.335937 -0.625 0.578125 -0.84375 c 0.25 -0.226562 0.53125 -0.394531 0.84375 -0.5 c 0.3125 -0.101562 0.644531 -0.140625 1 -0.109375 c 0.363281 0.023437 0.734375 0.117187 1.109375 0.28125 c 0.382813 0.167969 0.707031 0.375 0.96875 0.625 c 0.269531 0.242187 0.476563 0.511719 0.625 0.8125 c 0.144531 0.304687 0.210937 0.621094 0.203125 0.953125 c 0 0.324219 -0.074219 0.65625 -0.21875 1 c -0.105469 0.242188 -0.242188 0.449219 -0.40625 0.625 c -0.15625 0.179688 -0.34375 0.324219 -0.5625 0.4375 c -0.21875 0.117188 -0.445312 0.1875 -0.671875 0.21875 c -0.230469 0.023438 -0.464844 0.007812 -0.703125 -0.046875 l -0.03125 0.078125 c 0.46875 0.304688 0.78125 0.710938 0.9375 1.21875 c 0.15625 0.5 0.113281 1.027344 -0.125 1.578125 c -0.15625 0.363281 -0.371094 0.671875 -0.640625 0.921875 c -0.261719 0.257812 -0.558594 0.445312 -0.890625 0.5625 c -0.324219 0.113281 -0.683594 0.15625 -1.078125 0.125 c -0.386719 -0.023438 -0.792969 -0.125 -1.21875 -0.3125 z m -0.515625 -3.25 c -0.210938 0.480469 -0.230469 0.945312 -0.0625 1.390625 c 0.164062 0.4375 0.488281 0.757813 0.96875 0.96875 c 0.488281 0.21875 0.953125 0.234375 1.390625 0.046875 c 0.4375 -0.179688 0.757813 -0.507812 0.96875 -0.984375 c 0.207031 -0.5 0.222656 -0.957031 0.046875 -1.375 c -0.167969 -0.425781 -0.496094 -0.75 -0.984375 -0.96875 c -0.480469 -0.207031 -0.9375 -0.226563 -1.375 -0.0625 c -0.429687 0.15625 -0.746094 0.484375 -0.953125 0.984375 z m 3.953125 -4.65625 c -0.449219 -0.195312 -0.859375 -0.21875 -1.234375 -0.0625 c -0.367188 0.148438 -0.640625 0.4375 -0.828125 0.875 s -0.214844 0.855469 -0.078125 1.25 c 0.132812 0.398438 0.421875 0.6875 0.859375 0.875 c 0.445313 0.199219 0.863281 0.214844 1.25 0.046875 c 0.382813 -0.175781 0.671875 -0.484375 0.859375 -0.921875 s 0.207031 -0.835938 0.0625 -1.203125 c -0.148438 -0.375 -0.445312 -0.660156 -0.890625 -0.859375 z m 0 0"/>
    </symbol>
    <symbol id="u" overflow="visible">
        <path d="m 3.5 1.640625 c -0.730469 -0.3125 -1.257812 -0.746094 -1.578125 -1.296875 c -0.3125 -0.539062 -0.398437 -1.125 -0.25 -1.75 l 1.125 0.484375 c -0.042969 0.324219 0.03125 0.632813 0.21875 0.921875 c 0.1875 0.300781 0.484375 0.539062 0.890625 0.71875 c 0.488281 0.207031 0.9375 0.234375 1.34375 0.078125 c 0.40625 -0.148437 0.710938 -0.460937 0.921875 -0.9375 l 0.265625 -0.609375 c 0.195312 -0.46875 0.210938 -0.898438 0.046875 -1.296875 c -0.15625 -0.40625 -0.480469 -0.71875 -0.96875 -0.9375 c -0.617187 -0.257813 -1.164063 -0.238281 -1.640625 0.0625 l -1.09375 -0.484375 l 2.09375 -4.65625 l 4.703125 2.046875 l -0.421875 0.96875 l -3.671875 -1.59375 l -1.34375 3 l 0.0625 0.03125 c 0.15625 -0.125 0.328125 -0.222656 0.515625 -0.296875 c 0.1875 -0.050781 0.40625 -0.078125 0.65625 -0.078125 c 0.257812 -0.007813 0.570312 0.070313 0.9375 0.234375 c 0.71875 0.304688 1.1875 0.773438 1.40625 1.40625 c 0.21875 0.625 0.160156 1.320312 -0.171875 2.078125 l -0.265625 0.609375 c -0.167969 0.375 -0.386719 0.6875 -0.65625 0.9375 c -0.261719 0.257812 -0.554688 0.441406 -0.875 0.546875 c -0.324219 0.101563 -0.679688 0.144531 -1.0625 0.125 c -0.375 -0.023437 -0.773438 -0.125 -1.1875 -0.3125 z m 0 0"/>
    </symbol>
    <symbol id="v" overflow="visible">
        <path d="m 3.515625 1.65625 c -0.398437 -0.179688 -0.734375 -0.398438 -1.015625 -0.65625 c -0.273438 -0.261719 -0.476562 -0.546875 -0.609375 -0.859375 c -0.125 -0.3125 -0.183594 -0.648437 -0.171875 -1.015625 c 0.019531 -0.375 0.117188 -0.757812 0.296875 -1.15625 l 1.59375 -3.6875 c 0.164063 -0.382812 0.378906 -0.707031 0.640625 -0.96875 c 0.257812 -0.269531 0.546875 -0.46875 0.859375 -0.59375 c 0.320313 -0.125 0.671875 -0.175781 1.046875 -0.15625 c 0.382812 0.023438 0.773438 0.121094 1.171875 0.296875 c 0.40625 0.179687 0.742187 0.398437 1.015625 0.65625 c 0.269531 0.261719 0.46875 0.554687 0.59375 0.875 c 0.132812 0.3125 0.191406 0.65625 0.171875 1.03125 c -0.011719 0.375 -0.101563 0.757813 -0.265625 1.140625 l -1.59375 3.6875 c -0.179688 0.394531 -0.398438 0.71875 -0.65625 0.96875 c -0.25 0.257812 -0.539062 0.453125 -0.859375 0.578125 c -0.324219 0.125 -0.671875 0.175781 -1.046875 0.15625 c -0.375 -0.023437 -0.765625 -0.121094 -1.171875 -0.296875 z m -0.46875 -3.234375 c -0.210937 0.480469 -0.234375 0.9375 -0.078125 1.375 c 0.15625 0.425781 0.46875 0.742187 0.9375 0.953125 c 0.476562 0.207031 0.925781 0.21875 1.34375 0.03125 c 0.425781 -0.179688 0.742188 -0.507812 0.953125 -0.984375 l 1.59375 -3.6875 c 0.207031 -0.476563 0.234375 -0.929687 0.078125 -1.359375 c -0.148438 -0.4375 -0.460938 -0.757812 -0.9375 -0.96875 c -0.46875 -0.207031 -0.917969 -0.21875 -1.34375 -0.03125 c -0.429688 0.179688 -0.746094 0.507812 -0.953125 0.984375 z m 1.984375 -0.265625 c -0.179688 -0.070312 -0.292969 -0.1875 -0.34375 -0.34375 c -0.054688 -0.164062 -0.039062 -0.351562 0.046875 -0.5625 l 0.21875 -0.46875 c 0.082031 -0.195312 0.203125 -0.332031 0.359375 -0.40625 c 0.15625 -0.070312 0.320312 -0.070312 0.5 0 c 0.1875 0.085938 0.304688 0.210938 0.359375 0.375 c 0.0625 0.167969 0.050781 0.351562 -0.03125 0.546875 l -0.21875 0.46875 c -0.085937 0.210937 -0.210937 0.351563 -0.375 0.421875 c -0.15625 0.0625 -0.328125 0.054688 -0.515625 -0.03125 z m 0 0"/>
    </symbol>
    <symbol id="w" overflow="visible">
        <path d="m 3.515625 -5.96875 c 0.164063 -0.34375 0.378906 -0.632812 0.640625 -0.875 c 0.269531 -0.238281 0.566406 -0.410156 0.890625 -0.515625 c 0.332031 -0.101563 0.6875 -0.140625 1.0625 -0.109375 s 0.769531 0.136719 1.1875 0.3125 c 0.382813 0.167969 0.710937 0.375 0.984375 0.625 c 0.28125 0.25 0.484375 0.527344 0.609375 0.828125 c 0.132813 0.304687 0.195313 0.632813 0.1875 0.984375 c 0 0.355469 -0.078125 0.710938 -0.234375 1.0625 c -0.273438 0.648438 -0.71875 1.195312 -1.34375 1.640625 c -0.617188 0.4375 -1.449219 0.824219 -2.5 1.15625 l -1.984375 0.625 c -0.054687 0.023437 -0.109375 0.039063 -0.171875 0.046875 c -0.0625 0.011719 -0.125 0.023438 -0.1875 0.03125 c -0.085938 0.011719 -0.164062 0.015625 -0.234375 0.015625 l -0.03125 0.046875 c 0.144531 0.0625 0.273437 0.1171875 0.390625 0.171875 c 0.113281 0.039063 0.226562 0.082031 0.34375 0.125 c 0.113281 0.050781 0.222656 0.097656 0.328125 0.140625 l 3.15625 1.375 l -0.421875 0.96875 l -5.359375 -2.328125 l 0.515625 -1.1875 l 3.109375 -0.953125 c 0.457031 -0.144531 0.863281 -0.296875 1.21875 -0.453125 c 0.363281 -0.164063 0.675781 -0.335937 0.9375 -0.515625 c 0.257813 -0.1875 0.476563 -0.390625 0.65625 -0.609375 c 0.1875 -0.226563 0.34375 -0.484375 0.46875 -0.765625 c 0.195313 -0.445312 0.21875 -0.851562 0.0625 -1.21875 c -0.15625 -0.375 -0.460937 -0.660156 -0.90625 -0.859375 c -0.511719 -0.21875 -0.976563 -0.257813 -1.390625 -0.125 c -0.40625 0.125 -0.703125 0.402344 -0.890625 0.828125 z m 0 0"/>
    </symbol>
    <symbol id="x" overflow="visible">
        <path d="m 3.53125 1.671875 c -0.398438 -0.179687 -0.742188 -0.402344 -1.03125 -0.671875 c -0.28125 -0.273438 -0.496094 -0.578125 -0.640625 -0.921875 c -0.136719 -0.332031 -0.203125 -0.691406 -0.203125 -1.078125 c 0.007812 -0.394531 0.101562 -0.789062 0.28125 -1.1875 c 0.207031 -0.476562 0.535156 -0.941406 0.984375 -1.390625 c 0.457031 -0.445313 1.023437 -0.90625 1.703125 -1.375 l 2.796875 -2 l 1.296875 0.5625 l -3.046875 2.0625 c -0.273437 0.1875 -0.496094 0.339844 -0.671875 0.453125 c -0.179688 0.105469 -0.320312 0.1875 -0.421875 0.25 c -0.105469 0.054688 -0.1875 0.101562 -0.25 0.140625 l 0.1875 0.078125 c 0.113281 -0.113281 0.253906 -0.191406 0.421875 -0.234375 c 0.144531 -0.03125 0.316406 -0.039063 0.515625 -0.03125 c 0.207031 0.011719 0.441406 0.074219 0.703125 0.1875 c 0.351562 0.15625 0.644531 0.367187 0.875 0.625 c 0.238281 0.25 0.414062 0.539063 0.53125 0.859375 c 0.113281 0.3125 0.160156 0.65625 0.140625 1.03125 c -0.011719 0.367188 -0.105469 0.75 -0.28125 1.15625 c -0.167969 0.382812 -0.390625 0.710938 -0.671875 0.984375 c -0.28125 0.28125 -0.59375 0.484375 -0.9375 0.609375 c -0.34375 0.132812 -0.714844 0.191406 -1.109375 0.171875 c -0.386719 -0.023437 -0.777344 -0.117187 -1.171875 -0.28125 z m 1.90625 -4.390625 c -0.492188 -0.21875 -0.964844 -0.234375 -1.421875 -0.046875 c -0.449219 0.179687 -0.78125 0.527344 -1 1.046875 c -0.230469 0.511719 -0.257813 0.996094 -0.078125 1.453125 c 0.175781 0.445313 0.507812 0.78125 1 1 c 0.238281 0.101563 0.476562 0.148437 0.71875 0.140625 c 0.238281 0 0.460938 -0.042969 0.671875 -0.125 c 0.21875 -0.074219 0.410156 -0.199219 0.578125 -0.375 c 0.175781 -0.179688 0.320312 -0.3945312 0.4375 -0.65625 c 0.113281 -0.269531 0.175781 -0.523438 0.1875 -0.765625 c 0.007812 -0.238281 -0.027344 -0.46875 -0.109375 -0.6875 c -0.085937 -0.21875 -0.210937 -0.410156 -0.375 -0.578125 c -0.167969 -0.164062 -0.371094 -0.300781 -0.609375 -0.40625 z m 0 0"/>
    </symbol>
    <path d="m 108 116.496094 h -88 c -4.417969 0 -8 -3.582032 -8 -8 v -80 c 0 -4.417969 3.582031 -8 8 -8 h 88 c 4.417969 0 8 3.582031 8 8 v 80 c 0 4.417968 -3.582031 8 -8 8 z m 0 0" fill="#1a5fb4"/>
    <path d="m 108 114.496094 h -88 c -4.417969 0 -8 -3.582032 -8 -8 v -80 c 0 -4.417969 3.582031 -8 8 -8 h 88 c 4.417969 0 8 3.582031 8 8 v 80 c 0 4.417968 -3.582031 8 -8 8 z m 0 0" fill="#d5d3cf"/>
    <path d="m 108 108.496094 h -88 c -4.417969 0 -8 -3.582032 -8 -8 v -80 c 0 -4.417969 3.582031 -8 8 -8 h 88 c 4.417969 0 8 3.582031 8 8 v 80 c 0 4.417968 -3.582031 8 -8 8 z m 0 0" fill="#f6f5f4"/>
    <g fill="#d5d3cf">
        <path d="m 110 80.496094 c 0 1.105468 -0.894531 2 -2 2 s -2 -0.894532 -2 -2 c 0 -1.105469 0.894531 -2 2 -2 s 2 0.894531 2 2 z m 0 0"/>
        <path d="m 110 70.496094 c 0 1.105468 -0.894531 2 -2 2 s -2 -0.894532 -2 -2 c 0 -1.105469 0.894531 -2 2 -2 s 2 0.894531 2 2 z m 0 0"/>
        <path d="m 110 60.496094 c 0 1.105468 -0.894531 2 -2 2 s -2 -0.894532 -2 -2 c 0 -1.105469 0.894531 -2 2 -2 s 2 0.894531 2 2 z m 0 0"/>
        <path d="m 110 50.496094 c 0 1.105468 -0.894531 2 -2 2 s -2 -0.894532 -2 -2 c 0 -1.105469 0.894531 -2 2 -2 s 2 0.894531 2 2 z m 0 0"/>
        <path d="m 110 40.496094 c 0 1.105468 -0.894531 2 -2 2 s -2 -0.894532 -2 -2 c 0 -1.105469 0.894531 -2 2 -2 s 2 0.894531 2 2 z m 0 0"/>
        <path d="m 110 30.496094 c 0 1.105468 -0.894531 2 -2 2 s -2 -0.894532 -2 -2 c 0 -1.105469 0.894531 -2 2 -2 s 2 0.894531 2 2 z m 0 0"/>
        <path d="m 110 20.496094 c 0 1.105468 -0.894531 2 -2 2 s -2 -0.894532 -2 -2 c 0 -1.105469 0.894531 -2 2 -2 s 2 0.894531 2 2 z m 0 0"/>
        <path d="m 22 100.496094 c 0 1.105468 -0.894531 2 -2 2 s -2 -0.894532 -2 -2 c 0 -1.105469 0.894531 -2 2 -2 s 2 0.894531 2 2 z m 0 0"/>
        <path d="m 22 90.496094 c 0 1.105468 -0.894531 2 -2 2 s -2 -0.894532 -2 -2 c 0 -1.105469 0.894531 -2 2 -2 s 2 0.894531 2 2 z m 0 0"/>
        <path d="m 22 80.496094 c 0 1.105468 -0.894531 2 -2 2 s -2 -0.894532 -2 -2 c 0 -1.105469 0.894531 -2 2 -2 s 2 0.894531 2 2 z m 0 0"/>
        <path d="m 22 70.496094 c 0 1.105468 -0.894531 2 -2 2 s -2 -0.894532 -2 -2 c 0 -1.105469 0.894531 -2 2 -2 s 2 0.894531 2 2 z m 0 0"/>
        <path d="m 22 60.496094 c 0 1.105468 -0.894531 2 -2 2 s -2 -0.894532 -2 -2 c 0 -1.105469 0.894531 -2 2 -2 s 2 0.894531 2 2 z m 0 0"/>
        <path d="m 22 50.496094 c 0 1.105468 -0.894531 2 -2 2 s -2 -0.894532 -2 -2 c 0 -1.105469 0.894531 -2 2 -2 s 2 0.894531 2 2 z m 0 0"/>
        <path d="m 22 40.496094 c 0 1.105468 -0.894531 2 -2 2 s -2 -0.894532 -2 -2 c 0 -1.105469 0.894531 -2 2 -2 s 2 0.894531 2 2 z m 0 0"/>
        <path d="m 22 30.496094 c 0 1.105468 -0.894531 2 -2 2 s -2 -0.894532 -2 -2 c 0 -1.105469 0.894531 -2 2 -2 s 2 0.894531 2 2 z m 0 0"/>
        <path d="m 22 20.496094 c 0 1.105468 -0.894531 2 -2 2 s -2 -0.894532 -2 -2 c 0 -1.105469 0.894531 -2 2 -2 s 2 0.894531 2 2 z m 0 0"/>
    </g>
    <g clip-path="url(#c)" fill="none" mask="url(#b)" stroke="#d5d3cf" stroke-width="2" transform="matrix(1 0 0 1 -8 -16)">
        <path d="m 27.999969 192.000854 h 72" transform="matrix(1 0 0 1 8.000031 -156.504761)"/>
        <path d="m 27.999969 202.000854 h 72" transform="matrix(1 0 0 1 8.000031 -156.504761)"/>
        <path d="m 27.999969 212.000854 h 72" transform="matrix(1 0 0 1 8.000031 -156.504761)"/>
        <path d="m 27.999969 222.000854 h 72" transform="matrix(1 0 0 1 8.000031 -156.504761)"/>
        <path d="m 27.999969 232.000854 h 72" transform="matrix(1 0 0 1 8.000031 -156.504761)"/>
        <path d="m 27.999969 242.000854 h 72" transform="matrix(1 0 0 1 8.000031 -156.504761)"/>
        <path d="m 27.999969 252.000854 h 72" transform="matrix(1 0 0 1 8.000031 -156.504761)"/>
        <path d="m 27.999969 262.000854 h 72" transform="matrix(1 0 0 1 8.000031 -156.504761)"/>
        <path d="m 27.999969 272.000854 h 66" transform="matrix(1 0 0 1 8.000031 -156.504761)"/>
    </g>
    <path d="m 133.561618 134.154894 l 68.30018 -0.000441 l -0.000307 16.398364 l -68.30018 0.000441 z m 0 0" fill="#ffffff" stroke="#d5d3cf" stroke-width="1.15841" transform="matrix(0.867203 0.755403 -0.714851 0.900923 28.610847 -202.611572)"/>
    <g>
        <use x="51.971747" xlink:href="#i" y="40.108847"/>
        <use x="57.871116" xlink:href="#i" y="45.512313"/>
        <use x="63.770485" xlink:href="#j" y="50.915779"/>
        <use x="69.669854" xlink:href="#k" y="56.319245"/>
        <use x="75.569223" xlink:href="#l" y="61.722711"/>
        <use x="81.468592" xlink:href="#m" y="67.126177"/>
    </g>
    <path d="m 48.070595 65.003704 l 78.549892 -0.001993 l -0.001608 18.860785 l -78.549892 0.001992 z m 0 0" fill="#ffffff" stroke="#d5d3cf" stroke-width="1.33226" transform="matrix(0.964648 0.263542 -0.21904 0.975716 -8 -16)"/>
    <path d="m 57.917048 32.839813 l 78.548414 0.000132 l -0.000111 18.860157 l -78.548414 -0.000132 z m 0 0" fill="#ffffff" stroke="#d5d3cf" stroke-width="1.33226" transform="matrix(0.916285 0.400528 -0.358099 0.933684 -8 -16)"/>
    <g>
        <use x="32.249065" xlink:href="#n" y="76.742551"/>
        <use x="39.954931" xlink:href="#o" y="78.89188"/>
        <use x="47.660798" xlink:href="#p" y="81.04121"/>
        <use x="55.366665" xlink:href="#q" y="83.190539"/>
        <use x="63.072532" xlink:href="#n" y="85.339869"/>
        <use x="70.778399" xlink:href="#r" y="87.489198"/>
    </g>
    <g>
        <use x="42.553931" xlink:href="#s" y="57.350847"/>
        <use x="49.891467" xlink:href="#t" y="60.538411"/>
        <use x="57.229003" xlink:href="#u" y="63.725975"/>
        <use x="64.566539" xlink:href="#v" y="66.913539"/>
        <use x="71.904075" xlink:href="#w" y="70.101103"/>
        <use x="79.241611" xlink:href="#x" y="73.288667"/>
    </g>
    <g clip-path="url(#d)">
        <g clip-path="url(#e)">
            <path d="m 88 88.496094 v 20 c 0 4.417968 3.582031 8 8 8 h 20 c 4.417969 0 8 -3.582032 8 -8 v -20 c 0 -4.417969 -3.582031 -8 -8 -8 h -20 c -4.417969 0 -8 3.582031 -8 8 z m 0 0" fill="url(#f)"/>
        </g>
    </g>
    <g clip-path="url(#g)">
        <g clip-path="url(#h)">
            <path d="m 260.00087 87.999971 h 20 c 4.417969 0 8 3.582032 8 8 v 20 c 0 4.417969 -3.582031 8 -8 8 h -20 c -4.417969 0 -8 -3.582031 -8 -8 v -20 c 0 -4.417968 3.582031 -8 8 -8 z m 0 0" fill="none" stroke="#d5d3cf" transform="matrix(0 1 1 0 0.000029 -171.504776)"/>
        </g>
    </g>
</svg>
